:FULLY-SPECIFIED
:FORCE-ALL-JOINTS-BE-3DOF
:DEGREES
1
root 6.24314 16.836 -28.1378 9.0217 -2.52979 -3.05774
lfemur -20.3712 2.30257 -19.9954
ltibia 35.927 0 0
lfoot -38.654 3.93715 0
ltoes 38.9541 0 0
rfemur -19.4747 0.22019 19.5256
rtibia 36.0342 0 0
rfoot -30.3779 -10.4967 0
rtoes 21.4483 0 0
lowerback -2.05144 3.66971 -5.03766
upperback -2.66728 5.00355 3.49279
thorax -2.36397 2.67023 6.42441
lowerneck -9.84699 -2.36864 1.94815
upperneck -1.37933 -3.32542 -1.65382
head 1.16433 -1.69823 -0.975663
lclavicle -1.65488e-014 -3.69739e-014 0
lhumerus -41.7253 -10.8128 99.8312
lradius 34.5094 0 0
lwrist 2.17521 0 0
lhand -10.5949 9.65639 0
lfingers 7.12502 0 0
lthumb 15.4107 39.062 0
rclavicle -1.65488e-014 -3.69739e-014 0
rhumerus -43.273 -4.86223 -84.2703
rradius 40.4763 0 0
rwrist 9.89469 0 0
rhand -23.7965 -22.476 0
rfingers 7.12502 0 0
rthumb 2.67393 -52.439 0
2
root 6.23525 16.838 -28.1358 9.02188 -2.64586 -3.00587
lfemur -19.9774 1.91095 -20.0559
ltibia 35.3507 -0 0
lfoot -38.9839 4.45617 0.0713526
ltoes 38.9357 -0 0
rfemur -19.367 0.697736 19.4638
rtibia 35.8518 -0 0
rfoot -30.2917 -10.8222 -0.00738867
rtoes 21.9502 -0 0
lowerback -2.2038 3.64369 -5.04032
upperback -2.6621 4.9758 3.45426
thorax -2.26193 2.65061 6.39455
lowerneck -9.83027 -2.32861 1.98598
upperneck -1.32898 -3.27618 -1.62683
head 1.1775 -1.67335 -0.971878
lclavicle -2.99295e-014 3.23025e-015 0
lhumerus -41.7533 -10.8428 99.8248
lradius 34.468 -0 0
lwrist 2.2116 0 0
lhand -10.6093 9.67711 1.50266e-005
lfingers 7.12502 -0 0
lthumb 15.3968 39.0838 1.08427e-005
rclavicle -2.99295e-014 3.23025e-015 0
rhumerus -43.2322 -5.04008 -84.2862
rradius 40.3467 -0 0
rwrist 10.0494 0 0
rhand -23.9533 -22.3275 -0.0039619
rfingers 7.12502 -0 0
rthumb 2.52251 -52.2912 -0.00380398
3
root 6.22735 16.8401 -28.1338 9.02585 -2.74783 -2.95624
lfemur -19.621 1.55542 -20.1116
ltibia 34.8223 -0 0
lfoot -39.2706 4.92519 0.138196
ltoes 38.9092 -0 0
rfemur -19.2594 1.15839 19.4087
rtibia 35.6647 -0 0
rfoot -30.2023 -11.1513 -0.01439
rtoes 22.3784 -0 0
lowerback -2.35485 3.61537 -5.02652
upperback -2.65465 4.94453 3.40924
thorax -2.15669 2.62871 6.34879
lowerneck -9.81406 -2.28969 2.02276
upperneck -1.28815 -3.22851 -1.59293
head 1.18785 -1.6491 -0.965745
lclavicle -2.99295e-014 3.23025e-015 0
lhumerus -41.7779 -10.8773 99.8081
lradius 34.4466 -0 0
lwrist 2.2577 0 0
lhand -10.624 9.68283 7.54882e-005
lfingers 7.12502 -0 0
lthumb 15.3827 39.0906 6.56738e-005
rclavicle -2.99295e-014 3.23025e-015 0
rhumerus -43.1849 -5.20168 -84.3179
rradius 40.2248 -0 0
rwrist 10.1935 0 0
rhand -24.1074 -22.1831 -0.00740752
rfingers 7.12502 -0 0
rthumb 2.37368 -52.1475 -0.00711166
4
root 6.21946 16.8421 -28.1318 9.03344 -2.83623 -2.90882
lfemur -19.3006 1.23474 -20.1622
ltibia 34.3404 -0 0
lfoot -39.516 5.34595 0.19989
ltoes 38.875 -0 0
rfemur -19.1518 1.6022 19.36
rtibia 35.4735 -0 0
rfoot -30.1098 -11.4835 -0.0209528
rtoes 22.7356 -0 0
lowerback -2.5044 3.58496 -4.99707
upperback -2.64503 4.90997 3.35809
thorax -2.04859 2.60473 6.28796
lowerneck -9.79834 -2.25191 2.05848
upperneck -1.25644 -3.18242 -1.55253
head 1.1955 -1.62549 -0.957389
lclavicle -2.99295e-014 3.23025e-015 0
lhumerus -41.7995 -10.9162 99.7817
lradius 34.4443 -0 0
lwrist 2.31295 0 0
lhand -10.6389 9.67426 0.000173708
lfingers 7.12502 -0 0
lthumb 15.3683 39.0831 0.000157118
rclavicle -2.99295e-014 3.23025e-015 0
rhumerus -43.1316 -5.34753 -84.3646
rradius 40.1103 -0 0
rwrist 10.3273 0 0
rhand -24.2587 -22.0428 -0.0103635
rfingers 7.12502 -0 0
rthumb 2.22754 -52.0079 -0.00994875
